<svg width="48" height="43" viewBox="0 0 48 43" fill="none" xmlns="http://www.w3.org/2000/svg">
<g filter="url(#filter0_d)">
<path d="M23.7419 34.3226L4 0H20.129L28.7742 15.3548L34.4516 5.54839H31.2258L28.6452 9.67742L25.4194 4.3871L28.2581 0H44L28.9032 26.0645L16.9032 5.54839H13.5484L27.3548 29.1613L23.7419 34.3226Z" fill="black"/>
<path d="M30.8018 5.28339L28.6504 8.72562L26.0098 4.39499L28.5301 0.5H43.1326L28.9011 25.0706L17.3348 5.29595L17.19 5.04839H16.9032H13.5484H12.6768L13.1168 5.80076L26.7615 29.1371L23.7833 33.3916L4.8644 0.5H19.8367L28.3385 15.6001L28.7681 16.3632L29.2069 15.6054L34.8843 5.79891L35.3188 5.04839H34.4516H31.2258H30.9487L30.8018 5.28339Z" stroke="black"/>
</g>
<defs>
<filter id="filter0_d" x="0" y="0" width="48" height="42.3226" filterUnits="userSpaceOnUse" color-interpolation-filters="sRGB">
<feFlood flood-opacity="0" result="BackgroundImageFix"/>
<feColorMatrix in="SourceAlpha" type="matrix" values="0 0 0 0 0 0 0 0 0 0 0 0 0 0 0 0 0 0 127 0"/>
<feOffset dy="4"/>
<feGaussianBlur stdDeviation="2"/>
<feColorMatrix type="matrix" values="0 0 0 0 0 0 0 0 0 0 0 0 0 0 0 0 0 0 0.25 0"/>
<feBlend mode="normal" in2="BackgroundImageFix" result="effect1_dropShadow"/>
<feBlend mode="normal" in="SourceGraphic" in2="effect1_dropShadow" result="shape"/>
</filter>
</defs>
</svg>
